# xmcd
#
# Track frame offsets:
#	150
#	16572
#	31693
#	48989
#	62377
#	79687
#	95257
#	115061
#	130220
#	148784
#	172038
#
# Disc length: 2500 seconds
# Revision: 0
# Processed by: cddbd v1.5.1PL0 Copyright (c) Steve Scherf et al.
# Submitted via: cdrLabel 7.1
#
DISCID=7e09c20b
DTITLE=Trisha Yearwood - Where Your Road Leads
DYEAR=1900
DGENRE=
TTITLE0=There Goes My Baby
TTITLE1=Never Let You Go Again
TTITLE2=That Ain't The Way I Heard It
TTITLE3=Powerful Thing
TTITLE4=Love Wouldn't Lie To Me
TTITLE5=Wouldn't Any Woman
TTITLE6=I'll Still Love You More
TTITLE7=Heart Like A Sad Song
TTITLE8=I Don't Want To Be The One
TTITLE9=Bring Me All Your Lovin'
TTITLE10=Where Your Road Leads
EXTD=
EXTT0=
EXTT1=
EXTT2=
EXTT3=
EXTT4=
EXTT5=
EXTT6=
EXTT7=
EXTT8=
EXTT9=
EXTT10=
PLAYORDER=
